<?xml version="1.0" encoding="utf-8"?>
<!-- Generator: Adobe Illustrator 24.0.0, SVG Export Plug-In . SVG Version: 6.00 Build 0)  -->
<svg version="1.1" id="Layer_1" xmlns="http://www.w3.org/2000/svg" xmlns:xlink="http://www.w3.org/1999/xlink" x="0px" y="0px"
	 viewBox="0 0 216.3 99.8" style="enable-background:new 0 0 216.3 99.8;" xml:space="preserve">
<style type="text/css">
	.st0{fill:#BBBF33;}
	.st1{fill:#FFFFFF;}
	.st2{fill:#F3EAE9;}
	.st3{fill:#D6D833;}
	.st4{fill:#4A4A42;}
</style>
<g>
	<g>
		
			<ellipse transform="matrix(0.996 -8.938152e-02 8.938152e-02 0.996 -1.1359 16.8346)" class="st0" cx="187.4" cy="21.1" rx="12.6" ry="13.8"/>
	</g>
	<g>
		<polygon class="st1" points="206.5,48.7 136.9,88.6 174.1,42.7 		"/>
	</g>
	<g>
		<g>
			<polygon class="st2" points="160.8,74.1 33.7,51 25.6,99.8 138.4,93.4 			"/>
		</g>
		<g>
			<path class="st3" d="M210.9,25.2L77.4,0L10.1,21.7c-5,1.6-6.9,7.6-3.9,11.9L43,84.1l93.9,7.5l39.3-39.1l30.3-3.8l9.8-7.2
				L210.9,25.2z"/>
		</g>
	</g>
	<g>
		<polygon class="st0" points="156.5,69.7 49.7,84 136.4,89.9 		"/>
	</g>
	<g>
		
			<ellipse transform="matrix(0.996 -8.938177e-02 8.938177e-02 0.996 -1.2538 15.801)" class="st3" cx="175.8" cy="21.9" rx="13.3" ry="14.5"/>
	</g>
	<g>
		
			<ellipse transform="matrix(0.9846 -0.1749 0.1749 0.9846 -1.1659 31.371)" class="st1" cx="177.4" cy="22.3" rx="11.6" ry="12.5"/>
	</g>
	<g>
		<polygon class="st4" points="207,31.2 204.3,27.9 206.5,25.8 209.2,29.1 		"/>
	</g>
</g>
</svg>
