<?xml version="1.0" encoding="utf-8"?>
<!-- Generator: Adobe Illustrator 24.0.0, SVG Export Plug-In . SVG Version: 6.00 Build 0)  -->
<svg version="1.1" id="Layer_1" xmlns="http://www.w3.org/2000/svg" xmlns:xlink="http://www.w3.org/1999/xlink" x="0px" y="0px"
	 viewBox="0 0 68.7 62.3" style="enable-background:new 0 0 68.7 62.3;" xml:space="preserve">
<style type="text/css">
	.st0{fill:#BBBF33;}
</style>
<path class="st0" d="M50.7,58.6L2,16.3c-1.3-1.1-2-2.7-1.9-4.4c0-1.9,0.2-4.5,0.9-6.9c0.1-0.3,0.2-0.6,0.3-0.9
	c1.1-2.8,4.4-4.1,7.2-3L62,23c1.1,0.4,2,1.2,2.6,2.2l3.2,5.1c0.5,0.8,0.8,1.8,0.8,2.7c0.1,1.7-0.2,4.9-1.8,10.2
	c-1.6,5.3-5.3,10.8-8.1,14.6C56.8,60.3,53.1,60.7,50.7,58.6z"/>
</svg>
