<?xml version="1.0" encoding="utf-8"?>
<!-- Generator: Adobe Illustrator 24.0.0, SVG Export Plug-In . SVG Version: 6.00 Build 0)  -->
<svg version="1.1" id="Layer_1" xmlns="http://www.w3.org/2000/svg" xmlns:xlink="http://www.w3.org/1999/xlink" x="0px" y="0px"
	 viewBox="0 0 77.8 30.3" style="enable-background:new 0 0 77.8 30.3;" xml:space="preserve">
<style type="text/css">
	.st0{fill:#578F46;stroke:#106436;stroke-width:0.6175;}
	.st1{opacity:0.4;fill:#83BC41;enable-background:new    ;}
	.st2{fill:#578F46;}
</style>
<path class="st0" d="M23.7,20.8c-1.6,0.9-3.1,1.9-4.7,2.9c-1,0.6-2.5,2-1.8,3.2c0.9,1.4,4.2,1.7,5.7,1.9c5.3,0.9,10.7,1.3,16.1,1.3
	c21.3,0,38.6-6.7,38.6-14.9S60.2,0.3,38.9,0.3S0.3,7,0.3,15.2c0,0.3,0,0.6,0.1,0.9c0.1,0.9,2.4,1.4,3.1,1.5c1.6,0.2,3.2-0.3,4.7-0.7
	c0,0,11.9-4.7,14.1-1.8l2.3,3.1C24.6,18.2,25.7,19.6,23.7,20.8z"/>
<path class="st1" d="M23.7,20.8c-1.6,1-3.1,1.9-4.8,2.9c-1,0.6-2.5,2-1.8,3.2c0.9,1.4,4.2,1.7,5.7,1.9c5.3,0.9,10.7,1.3,16.1,1.3
	c21.3,0,38.6-6.7,38.6-14.9S60.2,0.3,38.9,0.3S0.3,7,0.3,15.2c0,0.3,0,0.6,0.1,0.9c0.1,0.9,2.4,1.4,3.1,1.5c1.6,0.2,3.2-0.3,4.7-0.7
	c0,0,12.2-4.8,14.2-1.7S26.3,19.2,23.7,20.8z"/>
<path class="st1" d="M38.9,0.3c-6.5,0-12.7,0.6-18.1,1.7C29.1,0.6,37.5,0.3,46,1.8c5.1,0.9,10.3,1.9,15.3,3.4c4,1.1,8.4,2.8,11,6.3
	c2.5,3.4,1,6.8-1.7,9.6c-1.4,1.4-2.9,2.4-4.9,2.7c-2.4,0.4-4.5,1.6-6.8,2.3c-2.5,0.8-4.9,0.7-7.5,0.5c-2.8-0.2-5.1,0.2-7.8,1
	c-2.3,0.7-4.5,1-6.9,0.6c-2.5-0.4-5-1.5-7.6-1.4c-2.4,0.1-8,1.9-9.8-0.8c-0.5-0.7-0.6-1.5-0.4-2.2c-1,0.7-2.2,1.9-1.5,3
	c0.9,1.4,4.2,1.7,5.7,1.9c5.3,0.9,10.7,1.3,16.1,1.3c21.3,0,38.6-6.7,38.6-14.9C77.5,7,60.2,0.3,38.9,0.3z"/>
<g>
	<path class="st2" d="M35,9.2L35,9.2c-2.5,0-2.2,0.9-2.2,0.9s0,0.1,0.1,0.1C33.5,9.8,34.2,9.5,35,9.2"/>
	<path class="st2" d="M40,13.8c-0.1-0.1-0.2-0.1-0.2-0.1C38.3,13.6,35,14,35,14l-0.5-0.3c1.2-0.2,2.1-0.4,2.8-0.5
		c-0.2,0-0.3-0.1-0.3-0.1c-1.4-0.4-2.6-0.8-3.5-1.3C32.9,13,34.2,14,34.2,14c0.2,0.2,0.4,0.3,0.7,0.4c2,1.1,4.9,1.4,6.8,1.4
		C41.2,14.7,40.4,14.1,40,13.8"/>
	<path class="st2" d="M42.1,11.3c-0.5-0.3-0.4-0.7,0.3-0.9c0.6-0.2,1.4-0.2,1.8,0.1l0,0c0.5,0.3,0.4,0.7-0.3,0.9
		C43.4,11.6,42.6,11.5,42.1,11.3L42.1,11.3 M36.5,8.8c2.8-0.6,5.6-0.5,5.6-0.5s2.5,0,4.4,0.4l1.6,1.3c-7-1.6-12.1,0.2-12.1,0.2
		c-0.8,0.3-1.3,0.6-1.7,0.9c0.4,0.2,0.7,0.3,0.7,0.3c1.4,0.5,2.7,0.9,4,1.2c0.9-0.4,0.8-0.7,0.8-0.7s0.2-0.5-1.2-1.6h0.5
		c0,0,0.3,0.3,0.8,0.6c0.3,0.1,0.6,0.3,1,0.5c1.3,0.5,3.2,0.7,6.1,0.5l0.5,0.3c-2.8,0.1-4.2,0.6-4.9,1.1c2,0.2,3.4,0.1,3.4,0.1
		c4-0.2,3.1-1,2.4-1.4c-0.2-0.1-0.4-0.2-0.4-0.2h2c2.9,2.7-5.3,2.5-5.3,2.5c-1,0-1.9-0.1-2.8-0.2c0,0.1-0.2,0.8,0.3,1.9
		c0.8,0,1.3,0,1.3,0l0.4,0.3c-6.8,0.1-10-1.4-10.7-1.8c-0.1-0.1-0.2-0.1-0.2-0.1c-3-1.7-1.2-3.4-1.2-3.4c0.1-0.1,0.2-0.2,0.3-0.3
		c-0.4-0.6-0.2-1.2,1-1.6C34.4,8.7,36.5,8.8,36.5,8.8L36.5,8.8 M57.5,8.4c-1.7-1-4.6-1.7-9.6-1c0,0,0.3-1.3-1.4-2.2
		c-0.7-0.4-1.6-0.7-3-0.9C39.2,3.7,37,5,36,5.6c0,0-6.2-1.8-12,0.7c-4.3,1.9-2.2,4.4-1.2,5.3c0.2,0.2,0.5,0.4,0.8,0.5l14.8,8.3
		c0.3,0.2,0.6,0.3,1,0.4c1.7,0.6,6.6,2,11.3,0.1c5.8-2.4,3.1-5.5,3.1-5.5s6.4-1.1,6.1-4.4C59.8,11,59.6,9.5,57.5,8.4"/>
</g>
</svg>
