<?xml version="1.0" encoding="utf-8"?>
<!-- Generator: Adobe Illustrator 24.0.0, SVG Export Plug-In . SVG Version: 6.00 Build 0)  -->
<svg version="1.1" id="Layer_1" xmlns="http://www.w3.org/2000/svg" xmlns:xlink="http://www.w3.org/1999/xlink" x="0px" y="0px"
	 viewBox="0 0 133 170.5" style="enable-background:new 0 0 133 170.5;" xml:space="preserve">
<style type="text/css">
	.st0{fill:#D6D833;}
	.st1{fill:#BBBF33;}
	.st2{fill:#FFFFFF;}
	.st3{fill:#F3EAE9;}
	.st4{fill:#E9C3B7;}
	.st5{fill:#4A4A42;}
</style>
<g>
	<g>
		<polygon class="st0" points="115.8,45.1 101,4.5 32,4.5 17.2,45.1 32.9,79.3 100.1,79.3 		"/>
	</g>
	<g>
		<polygon class="st1" points="118.8,108.1 133,119.6 107.3,145.3 100.1,145.3 		"/>
	</g>
	<g>
		<polygon class="st1" points="14.2,108.1 0,119.6 25.7,145.3 32.9,145.3 		"/>
	</g>
	<g>
		<polygon class="st0" points="103.9,70.9 125.6,103.6 100.1,145.3 95.2,145.3 108.8,100.9 100.1,79.3 		"/>
	</g>
	<g>
		<polygon class="st0" points="95.2,145.3 105.1,168 106.3,167.4 100.3,150 115.5,161.9 116.5,160.9 102.9,148.9 120.2,154.1 
			120.7,152.9 100.1,145.3 		"/>
	</g>
	<g>
		<polygon class="st0" points="29.1,70.9 7.4,103.6 32.9,145.3 37.8,145.3 24.2,100.9 32.9,79.3 		"/>
	</g>
	<g>
		<polygon class="st0" points="37.8,145.3 27.9,168 26.7,167.4 32.7,150 17.6,161.9 16.5,160.9 30.1,148.9 12.8,154.1 12.3,152.9 
			32.9,145.3 		"/>
	</g>
	<g>
		<polygon class="st2" points="100.1,79.3 103.9,70.9 103.9,33.3 29.1,33.3 29.1,70.9 32.9,79.3 24.2,100.9 37.8,145.3 95.2,145.3 
			108.8,100.9 		"/>
	</g>
	<g>
		<polygon class="st3" points="24.2,100.9 108.8,100.9 95.2,145.3 37.8,145.3 		"/>
	</g>
	<g>
		<path class="st3" d="M55.2,73.1c0-6.3,5.1-11.4,11.4-11.4S78,66.8,78,73.1H55.2z"/>
	</g>
	<g>
		<g>
			<ellipse class="st0" cx="31.5" cy="11.9" rx="11.9" ry="11.9"/>
		</g>
		<g>
			
				<ellipse transform="matrix(1.808574e-02 -0.9998 0.9998 1.808574e-02 16.8245 40.8597)" class="st2" cx="29.2" cy="11.9" rx="10.7" ry="9.6"/>
		</g>
		<g>
			<ellipse class="st0" cx="101.5" cy="11.9" rx="11.9" ry="11.9"/>
		</g>
		<g>
			
				<ellipse transform="matrix(0.9998 -1.808580e-02 1.808580e-02 0.9998 -0.1982 1.8792)" class="st2" cx="103.8" cy="11.9" rx="9.6" ry="10.7"/>
		</g>
	</g>
	<g>
		<ellipse class="st4" cx="12.3" cy="153.8" rx="2.5" ry="2.5"/>
	</g>
	<g>
		<circle class="st4" cx="16.9" cy="161.8" r="2.5"/>
	</g>
	<g>
		<circle class="st4" cx="27.1" cy="168" r="2.5"/>
	</g>
	<g>
		<ellipse class="st4" cx="105.1" cy="166.8" rx="2.5" ry="2.5"/>
	</g>
	<g>
		<circle class="st4" cx="115.5" cy="161.4" r="2.5"/>
	</g>
	<g>
		<ellipse class="st4" cx="120.7" cy="153.7" rx="2.5" ry="2.5"/>
	</g>
	<g>
		<g>
			<rect x="73.3" y="24.8" transform="matrix(0.6892 -0.7246 0.7246 0.6892 3.9092 62.311)" class="st5" width="2.6" height="3.6"/>
		</g>
		<g>
			
				<rect x="56.6" y="25.3" transform="matrix(0.7245 -0.6893 0.6893 0.7245 -2.2656 47.5896)" class="st5" width="3.6" height="2.6"/>
		</g>
	</g>
</g>
</svg>
