<?xml version="1.0" encoding="utf-8"?>
<!-- Generator: Adobe Illustrator 24.0.0, SVG Export Plug-In . SVG Version: 6.00 Build 0)  -->
<svg version="1.1" id="Layer_1" xmlns="http://www.w3.org/2000/svg" xmlns:xlink="http://www.w3.org/1999/xlink" x="0px" y="0px"
	 viewBox="0 0 77 65.6" style="enable-background:new 0 0 77 65.6;" xml:space="preserve">
<style type="text/css">
	.st0{fill:#D6D833;}
</style>
<path class="st0" d="M64.4,61.9L3.3,17.6c-0.7-0.5-1.2-1.1-1.6-1.9c-0.8-1.6-2-4.7-1.7-8.5c0.1-1.4,0.4-2.6,0.8-3.5
	c0.9-2.4,3.6-3.6,6-2.9l60.9,16.6c1.1,0.3,2,0.9,2.7,1.8l5,6.5c0.4,0.5,0.7,1.1,0.9,1.7c0.5,1.8,1.2,5.9,0.5,14.3
	c-0.6,6.8-2.7,13.4-4.5,18C70.9,62.8,67.1,63.9,64.4,61.9z"/>
</svg>
